<mxfile host="app.diagrams.net" modified="2023-11-18T07:20:07.566Z" agent="Mozilla/5.0 (Windows NT 10.0; Win64; x64) AppleWebKit/537.36 (KHTML, like Gecko) Chrome/89.0.4389.128 Safari/537.36 OPR/75.0.3969.282" etag="aaNnhcTJNkzm5NokvqcC" version="22.1.3" type="github">
  <diagram name="Страница — 1" id="6XAthjc1mGkFDj592o5L">
    <mxGraphModel dx="1990" dy="1139" grid="1" gridSize="10" guides="1" tooltips="1" connect="1" arrows="1" fold="1" page="1" pageScale="1" pageWidth="827" pageHeight="1169" math="0" shadow="0">
      <root>
        <mxCell id="0" />
        <mxCell id="1" parent="0" />
        <mxCell id="N3BmNelZl1V9x5YjzCcR-1" value="Регистрация" style="ellipse;whiteSpace=wrap;html=1;aspect=fixed;" vertex="1" parent="1">
          <mxGeometry x="374" y="110" width="80" height="80" as="geometry" />
        </mxCell>
        <mxCell id="N3BmNelZl1V9x5YjzCcR-2" value="Сбор информации " style="rounded=1;whiteSpace=wrap;html=1;" vertex="1" parent="1">
          <mxGeometry x="354" y="280" width="120" height="60" as="geometry" />
        </mxCell>
        <mxCell id="N3BmNelZl1V9x5YjzCcR-9" value="" style="edgeStyle=orthogonalEdgeStyle;rounded=0;orthogonalLoop=1;jettySize=auto;html=1;entryX=0.5;entryY=0;entryDx=0;entryDy=0;exitX=0.5;exitY=1;exitDx=0;exitDy=0;" edge="1" parent="1" source="N3BmNelZl1V9x5YjzCcR-2" target="N3BmNelZl1V9x5YjzCcR-3">
          <mxGeometry relative="1" as="geometry" />
        </mxCell>
        <mxCell id="N3BmNelZl1V9x5YjzCcR-3" value="Подтверждение регистрации" style="rounded=1;whiteSpace=wrap;html=1;" vertex="1" parent="1">
          <mxGeometry x="354" y="420" width="120" height="60" as="geometry" />
        </mxCell>
        <mxCell id="N3BmNelZl1V9x5YjzCcR-13" style="edgeStyle=orthogonalEdgeStyle;rounded=0;orthogonalLoop=1;jettySize=auto;html=1;exitX=0.5;exitY=1;exitDx=0;exitDy=0;entryX=0.5;entryY=0;entryDx=0;entryDy=0;" edge="1" parent="1" source="N3BmNelZl1V9x5YjzCcR-4" target="N3BmNelZl1V9x5YjzCcR-5">
          <mxGeometry relative="1" as="geometry" />
        </mxCell>
        <mxCell id="N3BmNelZl1V9x5YjzCcR-4" value="Формирование бейджика" style="rounded=1;whiteSpace=wrap;html=1;" vertex="1" parent="1">
          <mxGeometry x="354" y="560" width="120" height="60" as="geometry" />
        </mxCell>
        <mxCell id="N3BmNelZl1V9x5YjzCcR-15" style="edgeStyle=orthogonalEdgeStyle;rounded=0;orthogonalLoop=1;jettySize=auto;html=1;exitX=0.5;exitY=1;exitDx=0;exitDy=0;entryX=0.5;entryY=0;entryDx=0;entryDy=0;" edge="1" parent="1" source="N3BmNelZl1V9x5YjzCcR-5" target="N3BmNelZl1V9x5YjzCcR-14">
          <mxGeometry relative="1" as="geometry" />
        </mxCell>
        <mxCell id="N3BmNelZl1V9x5YjzCcR-5" value="Оформление документов и оплата" style="rounded=1;whiteSpace=wrap;html=1;" vertex="1" parent="1">
          <mxGeometry x="354" y="700" width="120" height="60" as="geometry" />
        </mxCell>
        <mxCell id="N3BmNelZl1V9x5YjzCcR-8" value="" style="endArrow=classic;html=1;rounded=0;entryX=0.5;entryY=0;entryDx=0;entryDy=0;exitX=0.5;exitY=1;exitDx=0;exitDy=0;" edge="1" parent="1" source="N3BmNelZl1V9x5YjzCcR-1" target="N3BmNelZl1V9x5YjzCcR-2">
          <mxGeometry width="50" height="50" relative="1" as="geometry">
            <mxPoint x="389" y="260" as="sourcePoint" />
            <mxPoint x="439" y="210" as="targetPoint" />
          </mxGeometry>
        </mxCell>
        <mxCell id="N3BmNelZl1V9x5YjzCcR-10" value="" style="endArrow=classic;html=1;rounded=0;entryX=0.5;entryY=0;entryDx=0;entryDy=0;exitX=0.5;exitY=1;exitDx=0;exitDy=0;" edge="1" parent="1" source="N3BmNelZl1V9x5YjzCcR-3" target="N3BmNelZl1V9x5YjzCcR-4">
          <mxGeometry width="50" height="50" relative="1" as="geometry">
            <mxPoint x="414" y="480" as="sourcePoint" />
            <mxPoint x="414" y="570" as="targetPoint" />
          </mxGeometry>
        </mxCell>
        <mxCell id="N3BmNelZl1V9x5YjzCcR-18" style="edgeStyle=orthogonalEdgeStyle;rounded=0;orthogonalLoop=1;jettySize=auto;html=1;exitX=0.5;exitY=1;exitDx=0;exitDy=0;entryX=0.5;entryY=0;entryDx=0;entryDy=0;" edge="1" parent="1" source="N3BmNelZl1V9x5YjzCcR-14" target="N3BmNelZl1V9x5YjzCcR-17">
          <mxGeometry relative="1" as="geometry" />
        </mxCell>
        <mxCell id="N3BmNelZl1V9x5YjzCcR-14" value="Внос данных в систему" style="rounded=1;whiteSpace=wrap;html=1;" vertex="1" parent="1">
          <mxGeometry x="354" y="840" width="120" height="60" as="geometry" />
        </mxCell>
        <mxCell id="N3BmNelZl1V9x5YjzCcR-17" value="Конец" style="ellipse;whiteSpace=wrap;html=1;aspect=fixed;" vertex="1" parent="1">
          <mxGeometry x="374" y="980" width="80" height="80" as="geometry" />
        </mxCell>
      </root>
    </mxGraphModel>
  </diagram>
</mxfile>
